<svg id="图层_1" data-name="图层 1" xmlns="http://www.w3.org/2000/svg" viewBox="0 0 686.32 166.63"><defs><style>.cls-1{fill:#fff;}</style></defs><path class="cls-1" d="M313.59,91.55h5.78c0-2.13,0-3.82-.12-5.08l3.15,1c.44.14.66.31.66.52s-.15.39-.45.55l-.74.37v2.62h5.78l1.27-1.88,2.46,1.64a.56.56,0,0,1,.33.47.66.66,0,0,1-.33.51l-.9.74v2q0,1,.12,2.37c.08.93.12,1.48.12,1.64,0,.49-.36.93-1.08,1.31a4.23,4.23,0,0,1-1.44.58c-.23,0-.35-.19-.35-.58V98.77H304.61q0,7.74-1.76,11.7a20.75,20.75,0,0,1-5.41,7.23l-.61-.41a23.2,23.2,0,0,0,3.87-7,30.8,30.8,0,0,0,1.25-9.64V86.92c0-1.37-.06-2.79-.16-4.26L305,85h23.57l2.54-2.92,2.71,3.12a1.7,1.7,0,0,1,.45.86c0,.19-.23.29-.7.29H304.61v5.16h6.52q0-3.19-.12-5l3.11,1c.44.14.66.31.66.52s-.15.39-.45.55l-.74.37Zm-2.46,1.23h-6.52v4.76h6.52Zm-.16,13v6.92l6.76-3.32.41.66-6,4.59a20,20,0,0,0-2.59,2.34,1,1,0,0,1-.74.41c-.24,0-.45-.17-.61-.5l-1.23-2.5a2.1,2.1,0,0,0,1.27-.71,3.93,3.93,0,0,0,.25-1.74v-8.86c0-1.36-.06-2.77-.17-4.22l3.24,1.35c.38.14.58.28.58.41s-.17.29-.5.45l-.69.37v3.2h3.28l1.64-2,1.88,2.34a1,1,0,0,1,.29.57c0,.16-.17.25-.49.25Zm8.4-13h-5.78v4.76h5.78Zm-5.12-13.65q5.21,1.28,5.2,3.16a2.27,2.27,0,0,1-.65,1.56,1.85,1.85,0,0,1-1.27.69,1.47,1.47,0,0,1-1-.34,2.49,2.49,0,0,1-.57-1.4,4.5,4.5,0,0,0-.68-1.76A5.19,5.19,0,0,0,314,79.75Zm7.13,29.6v4.51a.87.87,0,0,0,.82.9,24.36,24.36,0,0,0,3.65.16,13.8,13.8,0,0,0,3.38-.22c.37-.15.66-.61.88-1.38a37.78,37.78,0,0,0,.78-4.42h.61a30.45,30.45,0,0,0,.37,3.38,4.18,4.18,0,0,0,.49,1.45,2,2,0,0,0,.86.66c.39.16.58.36.58.59s-.29.65-.86,1.25a4,4,0,0,1-2.42,1.11,45.55,45.55,0,0,1-5.25.2,23.92,23.92,0,0,1-4.75-.28,2,2,0,0,1-1.4-1,5,5,0,0,1-.32-2.05v-8.23q0-3.16-.17-6.48l3.53,1.35c.35.14.53.3.53.47s-.18.37-.53.56l-.78.37v6.27a62.1,62.1,0,0,0,8.36-5.82l1.89,2.25a1.47,1.47,0,0,1,.41.8c0,.21-.28.32-.82.35a7.59,7.59,0,0,0-1.77.33Zm6.47-16h-6v4.76h6Z" transform="translate(-57.79 -20)"/><path class="cls-1" d="M394.13,113.85v1.64c0,.71-.43,1.24-1.31,1.6a6.72,6.72,0,0,1-1.64.53c-.22,0-.32-.15-.32-.45s0-.63,0-1c.21-2.24.33-4.31.33-6.19v-5.45a65.23,65.23,0,0,1-11,4.87l-.33-.77a75.67,75.67,0,0,0,11.23-6.15l-.16-1.68,1.68.61a57.11,57.11,0,0,0,8.18-6.56,45.2,45.2,0,0,0,6.21-8H394.46c-.87,1.29-1.65,2.38-2.33,3.28q6.11,2.05,6.1,4.51a2.84,2.84,0,0,1-.47,1.48,1.35,1.35,0,0,1-1.15.77,1.22,1.22,0,0,1-.94-.3,3.53,3.53,0,0,1-.53-1.09,11.41,11.41,0,0,0-1.25-2.24,17.29,17.29,0,0,0-2.17-2.6,41.92,41.92,0,0,1-9.43,9.18l-.49-.49a48.36,48.36,0,0,0,7.62-9.22,49,49,0,0,0,5.29-10.7l3.4,2c.33.19.49.36.49.51s-.2.27-.59.35-.84.49-1.33,1.23l-1.4,2.13h12.09l1.93-2,3.53,2.5a.7.7,0,0,1,.36.56c0,.2-.21.32-.63.35a2.32,2.32,0,0,0-1.25.49,13.3,13.3,0,0,0-1.84,1.84,68.53,68.53,0,0,1-14.39,12.67H408.6L410,100l3.48,2.29a.69.69,0,0,1,.29.47c0,.15-.14.31-.41.47l-1.15.82v5.41c0,1,0,2.11.13,3.2l.12,2.46q0,.78-1.23,1.35a5.35,5.35,0,0,1-1.56.58q-.33,0-.33-.54v-2.62Zm0-1.11h15.25v-9.46H394.13Z" transform="translate(-57.79 -20)"/><path class="cls-1" d="M491.61,113.56H467.55v2a1.13,1.13,0,0,1-.39,1,5.36,5.36,0,0,1-1.19.66,3.43,3.43,0,0,1-1.17.35c-.49,0-.67-.45-.53-1.35a86.84,86.84,0,0,0,.41-8.9V86.43c0-2.43-.06-4.29-.17-5.58l2.92,1.81h23.69l1.39-1.72,3.12,2.13c.22.11.32.24.32.39s-.12.3-.37.47l-1.1.78v21.88c0,1.86,0,3.56.16,5.09l.25,3.48q0,.5-1.23,1.23a4.52,4.52,0,0,1-1.64.74c-.27,0-.41-.19-.41-.57Zm-24.06-1.14h24.06V83.76H467.55Zm10.12-5.87v-9.1h-3.85a6.89,6.89,0,0,0-2.71.42l-1.43-1.73a24.3,24.3,0,0,0,3.32.21h4.67V89.58h-5.33a8.31,8.31,0,0,0-2.7.42l-1.4-1.69a32.54,32.54,0,0,0,3.33.17h14l2.14-2.58,2.41,2.82a1.23,1.23,0,0,1,.33.64c0,.15-.19.22-.57.22H480.3v6.77h3.56L486,93.93l2.26,2.7c.24.28.37.48.37.62s-.22.2-.66.2H480.3v9.1h5.86l2.25-2.66,2.46,2.91a1.3,1.3,0,0,1,.29.64c0,.15-.19.22-.58.22H472a8.26,8.26,0,0,0-2.7.37l-1.43-1.68a25,25,0,0,0,3.27.2Zm4-7.87a16.06,16.06,0,0,1,3,1.15,6.52,6.52,0,0,1,1.83,1.25,2,2,0,0,1,.47,1.35,2.8,2.8,0,0,1-.5,1.56,1.34,1.34,0,0,1-1.1.76c-.33,0-.64-.42-.94-1.27a11.54,11.54,0,0,0-3-4.34Z" transform="translate(-57.79 -20)"/><path class="cls-1" d="M548.67,83.19H553l1.48-2,2.78,2.71c.25.24.37.43.37.57s-.2.25-.59.33a2.11,2.11,0,0,0-1.11.67,9.37,9.37,0,0,0-1.13,1.62l-3.89,6.64a20.42,20.42,0,0,1,4,4.6,9.15,9.15,0,0,1,1.33,4.83,5.09,5.09,0,0,1-2.3,4.29c-1.53,1.1-2.52,1.66-3,1.66-.19,0-.33-.21-.41-.62a4.3,4.3,0,0,0-.72-2.09,3.21,3.21,0,0,0-1.57-1l0-.5a10.91,10.91,0,0,0,2.54.37c1.8,0,2.71-.95,2.71-2.87a10.32,10.32,0,0,0-1-4.07,21.11,21.11,0,0,0-2.93-4.7l3.65-9.3h-5.41v23.12c0,2.65,0,4.57.08,5.78s.08,1.85.08,2c0,.58-.41,1.08-1.23,1.52a4.69,4.69,0,0,1-1.62.65c-.26,0-.39-.31-.39-.94l.21-4.42c.08-1.89.12-3.72.12-5.5V87.78c0-3-.06-5.29-.16-6.84ZM564,99.75c.27.16.41.34.41.53s-.17.34-.52.43-.75.56-1.25,1.38q-4.62,8.47-9.42,12.66l-.45-.53a39.32,39.32,0,0,0,8.11-16.36Zm5-5.21v17.3a9.55,9.55,0,0,1-.33,3.06,4.16,4.16,0,0,1-1.8,1.74,5.43,5.43,0,0,1-2,.9c-.32,0-.49-.35-.53-1.05a2.25,2.25,0,0,0-.87-1.68,10.64,10.64,0,0,0-3.29-1.33l.08-.74c1.91.2,3.23.29,4,.29a3,3,0,0,0,1.4-.2.91.91,0,0,0,.28-.78V94.54h-6.14A7.42,7.42,0,0,0,557,95l-1.56-1.81a25.53,25.53,0,0,0,3.4.21h16.6l2.22-2.63,2.7,3.08a1.31,1.31,0,0,1,.33.55c0,.1-.2.14-.61.14Zm-6.6-10.82h10l2.3-2.78,2.74,3.19a1.13,1.13,0,0,1,.29.58c0,.13-.21.2-.62.2H563.26a7.85,7.85,0,0,0-2.79.45L559,83.48a21.74,21.74,0,0,0,3.4.24m8.89,15a61.42,61.42,0,0,1,5.88,6.33q2.24,2.85,2.24,4.53a4.71,4.71,0,0,1-.55,2.52,1.72,1.72,0,0,1-1.5.84,1.2,1.2,0,0,1-.9-.45,2.24,2.24,0,0,1-.54-1.15,26,26,0,0,0-1.64-5.92,45.28,45.28,0,0,0-3.6-6.21Z" transform="translate(-57.79 -20)"/><path class="cls-1" d="M632.94,87.25h-2a7.4,7.4,0,0,0-2.71.45l-1.48-1.8a21.61,21.61,0,0,0,3.37.24h2.78v-3.2c0-1.06-.05-2.3-.16-3.73l3.77,1.48c.41.16.61.34.61.53a.91.91,0,0,1-.36.62l-1,.78v3.52h1.11l1.72-2.09,2.13,2.54a.82.82,0,0,1,.25.47c0,.13-.19.19-.58.19h-4.63v4.47H638a47.25,47.25,0,0,0,5.78-8.9L646,85a.86.86,0,0,1,.32.62c0,.22-.26.41-.79.57a2.47,2.47,0,0,0-1.34,1.07q-1.68,2.3-3.52,4.47h2.5l1.6-1.93,1.88,2.34c.22.22.33.39.33.53s-.2.2-.61.2h-6.73c-1.06,1.23-2.24,2.46-3.52,3.69h3.61l1.8-1.6,2.5,2.46a.93.93,0,0,1,.33.62c0,.19-.36.31-1.07.35a4.81,4.81,0,0,0-2.09.63,24.44,24.44,0,0,0-3.4,2.71l1.27.49c.33.14.49.28.49.43s-.12.32-.37.51l-1,.7v1l7.46-1.35.12.57-7.58,2.1v5.9a6.91,6.91,0,0,1-.29,2.42,5,5,0,0,1-1.72,1.62,6.1,6.1,0,0,1-1.72,1c-.19,0-.32-.31-.39-.92a2.17,2.17,0,0,0-1.17-1.58,10,10,0,0,0-3.2-1.07l.08-.69a38,38,0,0,0,4,.41A2.25,2.25,0,0,0,635,113a.89.89,0,0,0,.27-.72V107c-1.56.47-3.08,1-4.55,1.46a26.17,26.17,0,0,0-2.56,1,1.24,1.24,0,0,1-.58.21c-.15,0-.32-.17-.51-.49L625.93,107l9.35-1.59c0-1.21-.06-2.79-.17-4.76l1.89.74,3.16-3.69H635a49.11,49.11,0,0,1-10.29,7.54l-.33-.69a66.41,66.41,0,0,0,8.28-6.85H631a7.46,7.46,0,0,0-2.71.41l-1.44-1.76a21.79,21.79,0,0,0,3.37.24h3.52A41.42,41.42,0,0,0,637,92.86h-8.73a7,7,0,0,0-2.75.46l-1.47-1.85a20.35,20.35,0,0,0,3.36.25h5.49Zm15,8.07a39,39,0,0,1-3.56,5.7l-.7-.41a53.65,53.65,0,0,0,4.61-10.43,57.94,57.94,0,0,0,2.65-11.13l3.44,1.64q.45.21.45.51c0,.21-.14.34-.43.41a.94.94,0,0,0-.64.56l-3.19,7.54h6.72l2.34-2.79,2.74,3.28a.69.69,0,0,1,.21.41c0,.11-.17.16-.5.16h-4.38q-.7,10.33-4,15.87a18.65,18.65,0,0,0,9.18,6.64l-.16.45a5.88,5.88,0,0,0-2.56.55,2.46,2.46,0,0,0-1,1.54c0,.19-.1.28-.21.28-.3,0-1.33-.89-3.09-2.68a32.6,32.6,0,0,1-3.8-4.41q-4.14,5.37-13.36,7.91l-.24-.65q8.4-3,12.33-9.39a25.14,25.14,0,0,1-2.91-11.56m2.18-4.55c-.28.66-.66,1.51-1.15,2.55a29.11,29.11,0,0,0,3.24,11q2.46-5.2,2.87-13.53Z" transform="translate(-57.79 -20)"/><path class="cls-1" d="M721.4,86.1H711a7.15,7.15,0,0,0-2.75.45l-1.47-1.8a25.94,25.94,0,0,0,3.31.2H738l2.66-2.87,3.12,3.32c.22.22.33.39.33.52s-.19.18-.58.18H722.92l1.72,1c.38.22.57.39.57.52s-.21.22-.63.3a8.31,8.31,0,0,0-1.52.5q-.88.36-6.91,3.81L734,91.68A37.76,37.76,0,0,0,728,88l.33-.58q5.45,1.77,7.64,2.71a8.25,8.25,0,0,1,2.85,1.72,2.74,2.74,0,0,1,.66,1.83,3,3,0,0,1-.37,1.61,1,1,0,0,1-.88.58c-.35,0-.78-.38-1.29-1.13a13,13,0,0,0-1.85-2.11l-13.49,1.11c-4.53.35-7.16.69-7.87,1a1.87,1.87,0,0,1-.69.16c-.19,0-.33-.12-.41-.36l-.9-2.51a6.79,6.79,0,0,0,2.91-.53,17.22,17.22,0,0,0,3.46-2.19,15.42,15.42,0,0,0,3.26-3.26m11.11,22.46h-15v7.3c0,.52-.41.91-1.23,1.19a9.27,9.27,0,0,1-1.41.41.32.32,0,0,1-.29-.19,1.81,1.81,0,0,1-.06-.84q.21-2.09.21-6.27V99.75c0-1.39-.06-2.81-.17-4.26l3,1.56H732.1l1.6-1.77,2.62,2a.8.8,0,0,1,.29.47c0,.12-.1.24-.29.35l-.9.49v14.88a3.92,3.92,0,0,1-.47,2.07,5.75,5.75,0,0,1-2.18,1.66,7.67,7.67,0,0,1-2,.9c-.23,0-.37-.15-.43-.45a3.3,3.3,0,0,0-1.41-2.42,12.13,12.13,0,0,0-3.26-1.23l.16-.73a26.36,26.36,0,0,0,4.68.82,2.83,2.83,0,0,0,1.62-.33,1.67,1.67,0,0,0,.43-1.35Zm-15-6.39h15v-4h-15Zm15,1.15h-15v4.14h15Zm-9.92-23.9a14.36,14.36,0,0,1,3.85,1.11,2,2,0,0,1,1.15,1.86,2.17,2.17,0,0,1-.62,1.76,1.89,1.89,0,0,1-1.23.52c-.6,0-1-.44-1.31-1.31A6.68,6.68,0,0,0,722.3,80Z" transform="translate(-57.79 -20)"/><path class="cls-1" d="M381.16,157.48l-.33,4.59a2.63,2.63,0,0,0-.49,0h-.95a2.59,2.59,0,0,0-.48,0q.64-3.52,1.17-7T381,148l.42.07a2.77,2.77,0,0,0,.42,0l.39,0,.43-.07c.37.82.75,1.65,1.16,2.5s.8,1.69,1.21,2.53.8,1.67,1.21,2.47l1.15,2.3c.82-1.53,1.64-3.14,2.45-4.81s1.59-3.34,2.33-5a3.83,3.83,0,0,0,1.74,0c.14,1.17.28,2.44.44,3.79s.31,2.68.46,4,.3,2.49.45,3.61.29,2,.41,2.71a7.56,7.56,0,0,0-.83,0h-1.67a8.38,8.38,0,0,0-.86,0c-.07-1.41-.18-2.93-.34-4.57s-.31-3.27-.48-4.88h0q-1.17,2.41-2.29,4.76c-.76,1.55-1.5,3.12-2.24,4.69l-.19,0h-.39l-.2,0-2.2-4.59q-1.09-2.29-2.27-4.65h0c-.22,1.57-.38,3.12-.49,4.65" transform="translate(-57.79 -20)"/><path class="cls-1" d="M430.29,162.07c-.33,0-.64,0-.93,0h-1.75a8.44,8.44,0,0,0-.87,0l-.67-2c-.24-.7-.48-1.39-.74-2.09l-1.31,0h-2.38l-1.07,0c-.27.7-.52,1.39-.75,2.09s-.45,1.38-.64,2a2.59,2.59,0,0,0-.48,0h-1a3.4,3.4,0,0,0-.53,0c.17-.35.38-.85.66-1.48s.57-1.34.9-2.13l1.06-2.55c.37-.91.75-1.83,1.12-2.76s.75-1.84,1.11-2.74.69-1.74,1-2.52l.39.07.39,0a2.38,2.38,0,0,0,.39,0l.39-.07c.44,1.16.91,2.4,1.4,3.73s1,2.62,1.51,3.9,1,2.49,1.48,3.64.91,2.12,1.31,2.91M423,151.84c-.35.82-.69,1.63-1,2.43s-.62,1.62-.92,2.45h3.75l-.89-2.45c-.3-.8-.61-1.61-.94-2.43" transform="translate(-57.79 -20)"/><path class="cls-1" d="M456,155.61c-.34-.63-.73-1.33-1.17-2.12l-1.27-2.27-1.11-2-.69-1.25.94.07c.3,0,.61,0,.92,0s.62,0,.91,0l.92-.07c.41.83.82,1.67,1.25,2.5s.85,1.67,1.29,2.5c.52-.83,1-1.67,1.52-2.5s1-1.67,1.47-2.5l.53.07a4.35,4.35,0,0,0,1,0l.54-.07c-.23.3-.52.7-.87,1.19s-.72,1-1.12,1.6-.8,1.16-1.2,1.76-.78,1.15-1.13,1.66c.34.66.71,1.37,1.12,2.13s.82,1.51,1.22,2.23.78,1.4,1.13,2,.62,1.12.83,1.48c-.32,0-.62,0-.91,0h-1.79c-.29,0-.59,0-.89,0-.44-.83-.87-1.69-1.31-2.56s-.89-1.75-1.37-2.63c-.56.88-1.1,1.75-1.62,2.62s-1,1.72-1.5,2.57c-.31,0-.65,0-1,0h-.5a3.56,3.56,0,0,0-.55,0c.26-.33.57-.76.93-1.28l1.12-1.67,1.2-1.79c.4-.61.78-1.19,1.14-1.72" transform="translate(-57.79 -20)"/><path class="cls-1" d="M485.69,150.64c0-.88-.07-1.76-.13-2.65q.93,0,1.83.06c.6,0,1.21,0,1.82,0q1.52,0,2.7,0c.78,0,1.31,0,1.58-.07a3.92,3.92,0,0,0-.08.86c0,.22,0,.39,0,.51s0,.26.06.41l-1.3-.08-1.37-.08-1.2-.06c-.35,0-.61,0-.76,0-.05.75-.08,1.49-.09,2.23s0,1.48,0,2.23c.89,0,1.69,0,2.41-.06l2.24-.1c0,.23-.07.41-.08.53s0,.26,0,.39a2,2,0,0,0,0,.34c0,.12,0,.28.07.5q-2.34-.18-4.65-.18v1c0,1.14,0,2.15,0,3s.07,1.74.12,2.59a5.86,5.86,0,0,0-.75,0h-1.85a6.12,6.12,0,0,0-.76,0c.06-.85.1-1.71.13-2.59s0-1.89,0-3v-2.78c0-1.14,0-2.15,0-3" transform="translate(-57.79 -20)"/><path class="cls-1" d="M522.91,162.34a10.49,10.49,0,0,1-2.45-.28,5.32,5.32,0,0,1-2-.92,4.51,4.51,0,0,1-1.32-1.66,5.75,5.75,0,0,1-.49-2.47c0-.55,0-1,0-1.47s0-.83,0-1.2,0-.72,0-1.06,0-.7,0-1.07c0-1.11,0-2,0-2.68s0-1.2-.07-1.54l.84.07.84,0,.85,0L520,148c-.14,1.32-.22,2.56-.25,3.7s0,2.3,0,3.47a13.5,13.5,0,0,0,.27,3,4.27,4.27,0,0,0,.78,1.78,2.51,2.51,0,0,0,1.28.83,7.19,7.19,0,0,0,1.77.2,2.78,2.78,0,0,0,1.92-.61,3.8,3.8,0,0,0,1.06-1.64,8.54,8.54,0,0,0,.44-2.35c0-.88.08-1.8.08-2.75s0-1.89,0-2.82-.07-1.88-.12-2.82l.55.07.49,0a4.12,4.12,0,0,0,.51,0l.52-.07c0,.3-.06.7-.08,1.21s-.06,1.09-.09,1.75,0,1.39-.07,2.19,0,1.65,0,2.54c0,2.37-.51,4.08-1.54,5.11a6.07,6.07,0,0,1-4.5,1.55" transform="translate(-57.79 -20)"/><path class="cls-1" d="M555.5,150.24a5.13,5.13,0,0,0,0-.71c-.2,0-.46,0-.76,0l-1,0-1.05.08-1,.11c0-.15,0-.3.07-.45a3.39,3.39,0,0,0,0-.9c0-.15,0-.3-.07-.45l1.26,0,1.15,0,1.27,0h3.3l1.26,0,1.12,0,1.17,0c0,.15-.05.3-.07.45a3.39,3.39,0,0,0,0,.9c0,.15.05.3.07.45-.27,0-.58-.08-.92-.11l-1-.08-1,0c-.3,0-.55,0-.75,0a1,1,0,0,0,0,.28c0,.13,0,.27,0,.43v6.21c0,1.14,0,2.15,0,3s.06,1.74.12,2.59a6,6,0,0,0-.76,0h-1.84a5.92,5.92,0,0,0-.76,0c0-.85.09-1.71.12-2.59s0-1.89,0-3v-5.12c0-.4,0-.76,0-1.09" transform="translate(-57.79 -20)"/><path class="cls-1" d="M591.23,162.34a10.47,10.47,0,0,1-2.44-.28,5.32,5.32,0,0,1-2-.92,4.51,4.51,0,0,1-1.32-1.66A5.75,5.75,0,0,1,585,157c0-.55,0-1,0-1.47s0-.83,0-1.2,0-.72,0-1.06,0-.7,0-1.07c0-1.11,0-2,0-2.68s0-1.2-.06-1.54l.84.07.84,0,.85,0,.83-.07c-.13,1.32-.21,2.56-.24,3.7s0,2.3,0,3.47a14.23,14.23,0,0,0,.26,3,4.27,4.27,0,0,0,.79,1.78,2.51,2.51,0,0,0,1.28.83,7.19,7.19,0,0,0,1.77.2,2.78,2.78,0,0,0,1.92-.61,3.8,3.8,0,0,0,1.06-1.64,8.93,8.93,0,0,0,.44-2.35c.05-.88.08-1.8.08-2.75s0-1.89,0-2.82-.07-1.88-.12-2.82l.55.07.49,0a4.41,4.41,0,0,0,.52,0l.51-.07c0,.3-.06.7-.08,1.21s-.06,1.09-.09,1.75,0,1.39-.07,2.19,0,1.65,0,2.54c0,2.37-.51,4.08-1.54,5.11a6.08,6.08,0,0,1-4.51,1.55" transform="translate(-57.79 -20)"/><path class="cls-1" d="M624.46,155.61v.84c0,1.14,0,2.15,0,3s.07,1.74.12,2.59a5.92,5.92,0,0,0-.76,0H622a5.92,5.92,0,0,0-.76,0c0-.85.1-1.71.12-2.59s0-1.89,0-3v-2.78c0-1.14,0-2.15,0-3s-.07-1.76-.12-2.65l.76.07c.27,0,.58,0,.92,0s.79,0,1.26-.05,1.06,0,1.75,0c.52,0,1,0,1.34,0s.68.07,1,.12a3.61,3.61,0,0,1,.7.22,3.5,3.5,0,0,1,.56.32,3.16,3.16,0,0,1,1.33,2.7,3.57,3.57,0,0,1-.82,2.44,4.43,4.43,0,0,1-2.36,1.33c.66,1.16,1.36,2.32,2.12,3.48s1.5,2.3,2.25,3.43c-.31,0-.62,0-.92,0h-1.86c-.3,0-.61,0-.93,0l-3.67-6.46Zm3.24-3.77a4.53,4.53,0,0,0-.19-1.43,1.58,1.58,0,0,0-.56-.81,2,2,0,0,0-1-.36,11.72,11.72,0,0,0-1.44-.08c0,1.86-.06,3.71-.06,5.57l.23,0h.22a2.8,2.8,0,0,0,2.07-.72,3,3,0,0,0,.72-2.21" transform="translate(-57.79 -20)"/><path class="cls-1" d="M654.22,150.64c0-.88-.07-1.76-.13-2.65q.93,0,1.83.06c.6,0,1.21,0,1.82,0q1.51,0,2.7,0c.78,0,1.31,0,1.58-.07a3.92,3.92,0,0,0-.08.86c0,.22,0,.39,0,.51s0,.26.06.41l-1.3-.08-1.37-.08-1.2-.06c-.36,0-.61,0-.76,0,0,.75-.08,1.49-.09,2.23s0,1.48,0,2.23c.89,0,1.69,0,2.41-.06l2.24-.1c0,.23-.07.41-.08.53s0,.26,0,.39a2,2,0,0,0,0,.34c0,.12,0,.28.07.5q-2.34-.18-4.65-.18c0,.44,0,.87,0,1.31s0,.88,0,1.31c0,.89,0,1.74.06,2.56q1.17,0,2.34-.06c.78,0,1.56-.11,2.35-.2,0,.15,0,.28-.06.41s0,.29,0,.51,0,.39,0,.51,0,.23.06.31c-.36,0-.82,0-1.36,0h-6.17a2.33,2.33,0,0,0-.4,0c.06-.85.1-1.71.13-2.59s0-1.89,0-3v-2.78c0-1.14,0-2.15,0-3" transform="translate(-57.79 -20)"/><path class="cls-1" d="M146.49,186.63l0-3.19H148a17.43,17.43,0,0,1,1.31-3.51c1.84-3.64,4.94-6.46,10.7-9.72a60.36,60.36,0,0,1,8.22-3.86c1.27-.51,2.59-1,4.22-1.75,7.93-3.49,14.18-6.24,18.77-11.42a24,24,0,0,0,2.94-4.11c2.93-5.13,3.21-12.41,3.21-12.48.2-6.29.5-41.07,0-89.8l3.19,0c.5,48.78.2,83.62,0,89.93,0,.33-.3,8.13-3.63,14a27.77,27.77,0,0,1-3.32,4.64c-5,5.71-11.92,8.73-19.88,12.23-1.67.73-3.07,1.3-4.31,1.79A57.31,57.31,0,0,0,161.6,173c-5.23,3-7.87,5.31-9.42,8.38a13.78,13.78,0,0,0-1.29,3.92l-.22,1.32Z" transform="translate(-57.79 -20)"/><path class="cls-1" d="M146.62,186.63l-4.27,0-.22-1.32a13.78,13.78,0,0,0-1.29-3.92c-1.55-3.07-4.19-5.42-9.42-8.38a56.77,56.77,0,0,0-7.84-3.68c-1.23-.49-2.64-1.06-4.31-1.79-8-3.5-14.83-6.52-19.88-12.23a27.77,27.77,0,0,1-3.32-4.64c-3.33-5.83-3.62-13.63-3.63-14-.2-6.32-.49-41.18,0-89.93l3.19,0c-.49,48.71-.2,83.5,0,89.8,0,.07.28,7.35,3.21,12.48a24,24,0,0,0,2.94,4.11c4.59,5.18,10.84,7.93,18.77,11.42,1.63.71,3,1.24,4.22,1.75a60.36,60.36,0,0,1,8.22,3.86c5.76,3.26,8.86,6.08,10.7,9.72a17.43,17.43,0,0,1,1.31,3.51h1.63Z" transform="translate(-57.79 -20)"/><path class="cls-1" d="M120,165.56h-3.19V20l2.71,2.66,14.64,14.39c5,4.94,10,9.87,14.63,14.39l-2.24,2.27L131.87,39.33,120,27.6Z" transform="translate(-57.79 -20)"/><path class="cls-1" d="M176.26,165.56h-3.19V27.6L161,39.46,146.52,53.71l-2.24-2.27,14.5-14.25c5.06-5,10.13-10,14.77-14.53L176.26,20Z" transform="translate(-57.79 -20)"/><path class="cls-1" d="M146.68,153.91h-.27l.11-3.19a16.39,16.39,0,0,0,6.78-1.46c6.36-3.07,9.07-7.58,9.07-15.09,0-11.66-9.76-20.93-23.27-33.75-3.31-3.15-6.73-6.39-10.33-10C118,79.77,105.4,66.45,93,48.62l2.62-1.82C107.88,64.42,120.39,77.61,131,88.19c3.57,3.55,7,6.78,10.28,9.91,14.08,13.37,24.26,23,24.26,36.07,0,8.68-3.46,14.38-10.88,18a19.44,19.44,0,0,1-8,1.78" transform="translate(-57.79 -20)"/><path class="cls-1" d="M146.36,153.91a19.6,19.6,0,0,1-8-1.78c-7.42-3.58-10.88-9.28-10.88-18,0-13,10.18-22.7,24.27-36.07C155,95,158.43,91.74,162,88.19c10.63-10.58,23.14-23.77,35.38-41.39L200,48.62c-12.38,17.83-25,31.15-35.75,41.83-3.6,3.58-7,6.82-10.33,10-13.51,12.83-23.27,22.09-23.27,33.76,0,7.51,2.71,12,9.07,15.09a16.67,16.67,0,0,0,6.8,1.46l.11,3.19h-.27" transform="translate(-57.79 -20)"/><path class="cls-1" d="M118.41,184.4a1.39,1.39,0,0,1-1.58,1.22c-7.17-1.08-22.15-4.92-33.69-18.55a54.66,54.66,0,0,1-12.65-31.89V68.73h3.19v66.36a50.6,50.6,0,0,0,43.6,47.37,1.39,1.39,0,0,1,1.18,1.54Z" transform="translate(-57.79 -20)"/><polygon class="cls-1" points="13.2 68.21 0 56.88 0 52.7 13.2 64.03 13.2 68.21"/><polygon class="cls-1" points="15.06 68.18 21.69 62.5 21.69 58.32 15.06 64 15.06 68.18"/><polygon class="cls-1" points="15.04 79.53 28.24 68.19 28.24 64.02 15.04 75.35 15.04 79.53"/><polygon class="cls-1" points="13.23 79.54 6.6 73.86 6.6 69.68 13.23 75.36 13.23 79.54"/><polygon class="cls-1" points="15.04 102.25 28.24 90.92 28.24 86.73 15.04 98.07 15.04 102.25"/><polygon class="cls-1" points="13.23 102.27 6.6 96.58 6.6 92.4 13.23 98.09 13.23 102.27"/><polygon class="cls-1" points="13.24 90.93 0.04 79.6 0.04 75.42 13.24 86.75 13.24 90.93"/><polygon class="cls-1" points="15.06 90.91 21.69 85.22 21.69 81.04 15.06 86.73 15.06 90.91"/><polygon class="cls-1" points="13.24 113.65 0.04 102.32 0.04 98.14 13.24 109.47 13.24 113.65"/><polygon class="cls-1" points="15.06 113.63 21.69 107.94 21.69 103.76 15.06 109.45 15.06 113.63"/><polygon class="cls-1" points="15.07 56.93 21.7 51.24 21.7 47.06 15.07 52.75 15.07 56.93"/><polygon class="cls-1" points="13.23 56.93 6.61 51.24 6.61 47.06 13.23 52.75 13.23 56.93"/><path class="cls-1" d="M174.61,184.4a1.39,1.39,0,0,0,1.58,1.22,53.81,53.81,0,0,0,46.34-50.44V68.73h-3.19v66.36A51.38,51.38,0,0,1,207.45,165a51.94,51.94,0,0,1-31.7,17.45,1.39,1.39,0,0,0-1.19,1.54Z" transform="translate(-57.79 -20)"/><polygon class="cls-1" points="164.24 68.21 177.44 56.88 177.44 52.7 164.24 64.03 164.24 68.21"/><polygon class="cls-1" points="162.38 68.18 155.75 62.5 155.75 58.32 162.38 64 162.38 68.18"/><polygon class="cls-1" points="162.4 79.53 149.2 68.19 149.2 64.02 162.4 75.35 162.4 79.53"/><polygon class="cls-1" points="164.21 79.54 170.84 73.86 170.84 69.68 164.21 75.36 164.21 79.54"/><polygon class="cls-1" points="162.4 102.25 149.2 90.92 149.2 86.73 162.4 98.07 162.4 102.25"/><polygon class="cls-1" points="164.21 102.27 170.84 96.58 170.84 92.4 164.21 98.09 164.21 102.27"/><polygon class="cls-1" points="164.21 90.93 177.41 79.6 177.41 75.42 164.21 86.75 164.21 90.93"/><polygon class="cls-1" points="162.38 90.91 155.75 85.22 155.75 81.04 162.38 86.73 162.38 90.91"/><polygon class="cls-1" points="164.21 113.65 177.41 102.32 177.41 98.14 164.21 109.47 164.21 113.65"/><polygon class="cls-1" points="162.38 113.63 155.75 107.94 155.75 103.76 162.38 109.45 162.38 113.63"/><polygon class="cls-1" points="162.38 56.93 155.75 51.24 155.75 47.06 162.38 52.75 162.38 56.93"/><polygon class="cls-1" points="164.21 56.93 170.84 51.24 170.84 47.06 164.21 52.75 164.21 56.93"/></svg>